<svg width="750" height="130" viewBox="0 0 750 130" fill="none" xmlns="http://www.w3.org/2000/svg">
<path d="M203.591 72.6336C203.591 51.4669 217.116 51.1282 235.341 51.1282H237.458C255.238 51.1282 264.974 54.1127 264.974 74.5598V88.805C264.974 105.939 260.551 113.221 236.812 113.221H232.282C209.761 113.221 203.612 107.03 203.612 89.9374L203.591 72.6336ZM203.591 118.057H203.951C209.549 125.466 219.826 129.244 232.526 129.244H239.066C265.525 129.244 284.903 122.513 284.882 92.0011V73.3744C284.882 45.138 272.425 35.0944 239.892 35.0944H229.785C215.582 35.0944 207.676 39.9204 203.961 45.1274H203.623V0H183.684V126.355H203.591V118.057Z" fill="#1D1B17"/>
<path d="M526.139 37.3381H499.416V29.1889C499.416 21.4101 504.517 15.1554 515.386 15.1554H535.23V0H508.835C492.886 0 479.498 8.30794 479.498 29.2736V37.3381H468.777V53.3295H479.498V129.212H499.416V53.3295H526.139V37.3381Z" fill="#1D1B17"/>
<path d="M411.098 99.9175C411.098 120.894 424.497 129.212 440.456 129.212H465.169V113.242H445.314C434.456 113.242 431.006 107.813 431.006 100.023V53.3295H457.76V37.3381H431.006V0H411.109V37.3381H400.398V53.3295H411.109V99.8963" fill="#1D1B17"/>
<path d="M640.367 20.2142H660.274V0H640.367V20.2142Z" fill="#1D1B17"/>
<path d="M640.355 129.225H660.273V35.0859H640.366V129.278" fill="#1D1B17"/>
<path d="M314.717 70.9953C314.717 52.9083 323.184 51.1091 343.673 51.1091H347.705C370.809 51.1091 373.783 56.9194 373.783 68.8045V73.8528H314.696V70.9953H314.717ZM336.423 129.204H354.32C378.439 129.204 389.457 121.541 392.272 108.164L374.566 102.798C371.624 111.043 364.533 113.191 348.922 113.191H344.329C318.844 113.191 314.696 110.016 314.696 89.9077H393.7V72.4558C393.7 40.9491 377.339 35.0859 351.187 35.0859H341.45C320.749 35.0859 295.656 38.716 295.656 70.773V92.9981C295.656 124.155 317.405 129.235 336.423 129.225" fill="#1D1B17"/>
<path d="M602.799 101.105C602.799 109.942 596.735 113.212 573.166 113.212H567.874C547.84 113.212 545.3 109.349 545.3 101.719V96.7552C545.3 87.9181 550.295 84.5737 566.879 84.5737H575.737C590.85 84.5737 602.82 87.5476 602.82 97.4431V101.105H602.799ZM578.055 35.0859H570.647C543.649 35.0859 531.943 43.3939 531.181 55.8399L550.157 62.137C551.036 53.6703 560.794 51.1197 575.557 51.1197C597.56 51.1197 602.767 52.3897 602.767 68.2859V76.922H602.376C597.391 70.2862 590.607 68.5823 573.367 68.5823H565.588C540.188 68.5823 525.371 74.9323 525.371 95.0407V100.787C525.371 117.393 531.721 129.246 558.243 129.246H577.558C596.766 129.246 598.724 126.071 602.481 120.599H602.799V129.225H622.685V68.6987C622.685 42.3355 605.191 35.0859 578.055 35.0859" fill="#1D1B17"/>
<path d="M720.989 35.092C712.141 35.092 703.114 38.4469 697.536 47.6015H696.817V35.092H677.957V129.22H697.875V72.5888C697.875 61.1694 704.437 51.1152 719.899 51.1152C730.948 51.1152 736.282 54.1103 737.467 57.2641L749.998 48.7974C746.908 40.2355 738.6 35.0391 720.989 35.0391" fill="#1D1B17"/>
<path d="M147.023 0.3125H95.4816V26.1676H67.9648L121.273 88.4507L174.624 26.1676H147.107V0.3125" fill="#1D1B17"/>
<path d="M0 102.778H27.5167V128.654H79.0894V102.778H106.606L53.3401 40.5156L0 102.778Z" fill="#1D1B17"/>
</svg>
