<svg width="750" height="241" viewBox="0 0 750 241" fill="none" xmlns="http://www.w3.org/2000/svg">
<path d="M97.1862 1.73619C77.1936 3.81875 54.1466 8.8169 43.4561 13.3985L37.3473 16.0364L37.7638 61.4363C38.3191 106.558 38.3191 107.114 41.9289 116.277C49.8427 136.964 60.1166 149.598 91.6327 177.088C102.323 186.39 110.792 194.443 110.515 194.72C109.682 195.553 75.9441 170.563 57.4787 155.429C39.9852 141.129 30.2666 130.3 24.9907 119.47C19.4372 108.363 18.0489 99.7554 18.0489 77.8191V59.4926L23.6024 56.9935L29.1559 54.4944V44.2204C29.1559 38.667 28.8782 34.0853 28.4617 34.0853C27.0733 34.0853 7.63606 44.2204 3.88745 46.8584L0 49.4963V71.2938C0.138837 124.191 6.38652 132.799 83.4413 185.696C97.0474 195.137 108.293 203.189 108.293 203.606C108.293 204.022 102.601 209.021 95.7979 214.574C88.856 220.128 82.6083 225.82 81.9141 227.208C81.0811 228.597 80.5257 232.206 80.5257 235.261V240.953H123.01H165.633L164.939 234.705C164.106 227.347 163.551 226.653 151.333 216.657L141.892 208.882L122.177 218.045C111.348 223.043 102.184 226.931 101.907 226.653C101.629 226.514 118.012 214.991 138.421 201.384C197.427 161.538 208.256 153.624 220.752 140.99C233.247 128.495 239.911 117.527 242.966 104.198C243.937 100.311 244.632 86.5659 244.632 73.2375C244.77 51.3012 244.493 49.0798 242.133 47.2749C238.245 44.4981 221.862 35.8902 218.391 34.7795C215.337 33.9465 215.198 34.2242 215.198 43.5263V53.2449L221.585 56.9935L228.11 60.8809L227.277 80.457C226.166 109.891 222.556 119.47 206.59 136.27C193.539 149.876 135.644 196.525 133.839 194.859C133.562 194.443 143.836 185.002 156.886 173.756C181.461 152.514 191.318 141.129 198.538 126.273C206.451 109.891 207.146 105.17 207.84 59.0761L208.534 16.5918L204.924 14.9257C197.843 11.7325 170.076 4.92945 155.498 2.84689C142.447 1.042 110.098 0.347813 97.1862 1.73619ZM149.667 27.6988C157.303 31.0309 165.911 40.7495 167.855 48.6632C168.688 52.273 169.382 67.9617 169.382 87.2601C169.382 124.052 168.549 128.356 160.08 137.103C150.361 147.099 144.946 148.349 110.098 149.043C92.0492 149.459 79.1374 149.182 79.1374 148.349C79.1374 147.654 80.9422 145.016 83.3025 142.379L87.3288 137.519L87.4676 86.0105V34.6407L83.3025 30.6144C81.0811 28.393 79.1374 26.0327 79.1374 25.3386C79.1374 24.6444 92.6046 24.3667 111.486 24.6444C138.699 25.0609 144.669 25.6162 149.667 27.6988Z" fill="#EB171F"/>
<path d="M116.625 86.1493V125.718H124.955C139.117 125.718 138.839 126.412 138.839 86.1493C138.839 45.8864 139.117 46.5806 124.955 46.5806H116.625V86.1493Z" fill="#EB171F"/>
<path d="M279.477 5.49048L283.226 10.3498V56.9992V103.649L279.477 108.508L275.867 113.367L305.578 112.951C332.929 112.534 335.706 112.256 340.843 109.48C347.785 105.731 351.95 101.427 354.727 94.9018C357.781 87.4046 357.781 26.5938 354.727 19.0966C351.95 12.5712 347.785 8.26723 340.843 4.51862C335.706 1.74187 332.929 1.4642 305.578 1.04769L275.867 0.631173L279.477 5.49048ZM327.792 23.817C331.124 27.288 331.124 27.5656 331.124 57.2769V87.1269L327.237 90.459C324.183 92.9581 321.684 93.7911 316.408 93.7911H309.605V56.9992V20.2073H316.963C323.211 20.2073 325.016 20.7626 327.792 23.817Z" fill="#EB171F"/>
<path d="M373.473 56.9974V113.227H385.968H398.463V93.7893V74.3521H408.043C421.51 74.3521 421.372 74.0744 421.788 101.009L422.066 113.227H434.561H447.057V92.9563V72.686L443.03 68.6597C440.809 66.4383 437.893 64.6335 436.644 64.6335C434.978 64.6335 435.811 63.2451 439.143 60.0518C445.252 54.3595 446.223 49.639 445.39 29.3687C444.419 2.71195 441.225 0.768223 400.546 0.768223H373.473V56.9974ZM416.512 21.5938C418.873 23.9541 419.289 26.1755 419.289 35.8941C419.289 51.4439 417.762 53.5265 406.655 53.5265H398.463V36.1718V18.8171H406.099C411.931 18.8171 414.43 19.5113 416.512 21.5938Z" fill="#EB171F"/>
<path d="M478.436 2.1566C476.214 2.85078 472.882 4.79451 470.938 6.5994C464.135 12.8471 463.719 15.9015 463.719 57.2751C463.719 93.234 463.858 96.0107 466.634 101.564C471.355 111.422 476.769 113.227 503.01 113.227H524.807V102.814V92.4009H508.147C488.571 92.4009 488.709 92.5398 488.709 77.2677V67.4102H504.676H520.642V56.9974V46.7234L505.092 46.3069L489.404 45.8904L488.987 35.8941C488.432 21.1773 489.681 20.2055 509.535 20.2055H524.807V10.4868V0.768223L503.704 0.90706C492.042 0.90706 480.657 1.60125 478.436 2.1566Z" fill="#EB171F"/>
<path d="M540.078 56.9974V113.227H553.268H566.457V93.7893V74.3521H578.258H590.06V93.7893V113.227H603.249H616.439V69.3539C616.439 21.0385 615.883 17.0122 608.664 9.65382C601.167 2.1566 594.225 0.768223 565.485 0.768223H540.078V56.9974ZM587.283 21.5938C589.643 23.9541 590.06 26.1755 590.06 38.9485V53.5265H578.258H566.457V36.1718V18.8171H575.482C582.701 18.8171 585.061 19.3724 587.283 21.5938Z" fill="#EB171F"/>
<path d="M645.593 1.46241C644.482 1.74008 641.15 2.29543 638.373 2.85078L633.098 3.68381V58.3858V113.227H645.593H658.088L658.366 68.3821L658.783 23.6764L664.197 23.2599C679.747 22.0104 680.302 23.5376 680.302 73.6579V113.227H691.409H702.516V69.6316C702.516 40.4757 703.072 25.6201 704.044 25.0648C704.738 24.5094 708.348 24.0929 711.818 23.9541C716.817 23.9541 718.76 24.6483 720.843 27.0085C723.203 29.9241 723.342 33.5339 723.342 71.7142V113.227H735.837H748.333V66.0218C748.333 14.2355 748.333 14.2355 740.002 7.29358C737.642 5.21102 733.477 2.98962 730.562 2.1566C723.064 0.0740353 707.098 0.490548 697.796 2.85078C690.715 4.79451 689.049 4.79451 683.634 2.85078C678.081 1.0459 652.396 0.0740353 645.593 1.46241Z" fill="#EB171F"/>
<path d="M295.586 130.439C283.23 134.743 276.288 144.461 276.288 157.096C276.288 172.784 282.536 181.253 301.14 190.972C314.329 197.914 319.328 203.051 319.328 209.854C319.328 214.991 315.301 220.128 311.275 220.128C306.971 220.128 302.806 216.101 302.389 211.381L301.973 206.938H288.783H275.594L276.01 212.492C277.121 224.154 283.507 233.595 293.643 238.315C300.029 241.37 317.939 241.925 326.964 239.426C342.097 235.261 349.733 215.824 343.485 197.497C340.57 189.028 333.35 181.947 319.883 174.45C305.721 166.675 302.667 163.76 302.667 158.345C302.667 152.653 304.888 150.709 311.275 150.709C316.967 150.709 319.328 153.347 319.328 159.595V163.204H332.517H345.707V158.623C345.707 140.157 332.239 128.495 310.997 128.634C305.305 128.634 298.363 129.467 295.586 130.439Z" fill="#3F3F41"/>
<path d="M356.812 184.724V240.953H370.002H383.192V221.655V202.356L398.186 201.94C412.07 201.384 413.736 201.107 418.179 197.636C425.121 192.36 426.509 185.973 425.954 161.538C425.537 143.628 425.259 140.712 422.621 137.242C416.929 129.328 412.903 128.495 383.608 128.495H356.812V184.724ZM398.186 149.598C399.297 150.709 399.852 155.985 399.852 164.037C399.852 179.309 398.603 181.253 389.3 181.253H383.192V164.593V147.932H389.856C393.466 147.932 397.214 148.626 398.186 149.598Z" fill="#3F3F41"/>
<path d="M457.055 130.295C450.113 132.933 442.893 139.319 439.978 145.706C437.756 150.704 437.34 155.147 437.34 184.719C437.34 222.205 438.034 225.259 447.475 233.59C454.139 239.421 461.636 241.365 475.52 240.67C490.098 240.115 498.567 235.533 503.843 224.982C507.453 218.179 507.453 217.762 507.453 184.719C507.453 153.203 507.314 151.12 504.398 145.844C500.372 138.208 494.68 133.21 487.46 130.572C480.379 128.073 463.719 127.934 457.055 130.295ZM478.991 152.092C479.963 153.758 480.241 166.115 480.102 186.385L479.685 217.901L475.937 220.122C472.466 221.927 471.633 221.927 468.301 220.122L464.413 217.901L463.997 185.552C463.719 162.783 464.135 152.509 465.246 151.259C467.745 148.205 477.186 148.76 478.991 152.092Z" fill="#3F3F41"/>
<path d="M517.863 184.724V240.953H531.053H544.242V221.516V202.079H551.74C563.124 202.079 563.68 203.05 563.68 223.737V240.953H576.869H590.059V222.904C590.059 202.773 588.393 196.247 582.562 193.471C578.535 191.666 577.98 190.277 580.895 189.167C582.006 188.75 583.95 186.39 585.199 184.03C587.004 180.42 587.421 175.977 587.004 159.733C586.588 140.712 586.449 139.602 583.117 135.992C576.869 129.189 572.982 128.495 544.242 128.495H517.863V184.724ZM559.237 149.598C560.348 150.709 560.903 155.985 560.903 164.037C560.903 179.309 559.653 181.253 550.351 181.253H544.242V164.593V147.932H550.907C554.516 147.932 558.265 148.626 559.237 149.598Z" fill="#3F3F41"/>
<path d="M597.276 139.879L597.692 151.403L609.216 151.819L620.601 152.236V196.525V240.953H634.484H648.368V196.525V152.236L659.892 151.819L671.276 151.403L671.693 139.879L672.109 128.495H634.484H596.859L597.276 139.879Z" fill="#3F3F41"/>
<path d="M697.379 130.716C690.299 133.354 682.385 141.684 680.441 148.904C675.582 166.12 683.079 180.142 702.933 190.277C717.372 197.775 721.954 202.495 721.954 209.854C721.954 216.101 718.622 220.128 713.346 220.128C709.458 220.128 705.293 214.991 705.293 210.409V206.244H692.104H678.914V210.548C678.914 222.904 688.077 235.955 699.184 239.287C702.378 240.12 709.597 240.953 715.289 240.953C732.228 240.953 740.419 236.927 745.695 226.098C751.665 213.741 748.472 194.165 738.892 185.002C736.809 183.058 729.59 178.199 722.648 174.311C715.845 170.424 709.042 165.981 707.792 164.315C702.516 158.206 706.126 150.709 714.179 150.709C719.871 150.709 721.954 152.791 721.954 158.623V163.204H735.976H749.999L749.027 156.54C748.472 152.93 747.222 148.071 746.389 145.849C743.89 140.018 734.31 131.688 727.924 130.022C720.426 127.939 704.321 128.356 697.379 130.716Z" fill="#3F3F41"/>
</svg>
