<svg width="15" height="15" viewBox="0 0 15 15" fill="none" xmlns="http://www.w3.org/2000/svg">
<path d="M9.10417 0.791667C8.88555 0.791667 8.70833 0.968887 8.70833 1.1875V5.14583C8.70833 5.36445 8.88555 5.54167 9.10417 5.54167H13.0625C13.2811 5.54167 13.4583 5.36445 13.4583 5.14583V1.1875C13.4583 0.968887 13.2811 0.791667 13.0625 0.791667H9.10417ZM9.10417 0H13.0625C13.7183 0 14.25 0.531662 14.25 1.1875V5.14583C14.25 5.80167 13.7183 6.33333 13.0625 6.33333H9.10417C8.44833 6.33333 7.91667 5.80167 7.91667 5.14583V1.1875C7.91667 0.531662 8.44833 0 9.10417 0ZM1.1875 0.791667C0.968887 0.791667 0.791667 0.968887 0.791667 1.1875V5.14583C0.791667 5.36445 0.968887 5.54167 1.1875 5.54167H5.14583C5.36445 5.54167 5.54167 5.36445 5.54167 5.14583V1.1875C5.54167 0.968887 5.36445 0.791667 5.14583 0.791667H1.1875ZM1.1875 0H5.14583C5.80167 0 6.33333 0.531662 6.33333 1.1875V5.14583C6.33333 5.80167 5.80167 6.33333 5.14583 6.33333H1.1875C0.531662 6.33333 0 5.80167 0 5.14583V1.1875C0 0.531662 0.531662 0 1.1875 0ZM9.10417 8.70833C8.88555 8.70833 8.70833 8.88555 8.70833 9.10417V13.0625C8.70833 13.2811 8.88555 13.4583 9.10417 13.4583H13.0625C13.2811 13.4583 13.4583 13.2811 13.4583 13.0625V9.10417C13.4583 8.88555 13.2811 8.70833 13.0625 8.70833H9.10417ZM9.10417 7.91667H13.0625C13.7183 7.91667 14.25 8.44833 14.25 9.10417V13.0625C14.25 13.7183 13.7183 14.25 13.0625 14.25H9.10417C8.44833 14.25 7.91667 13.7183 7.91667 13.0625V9.10417C7.91667 8.44833 8.44833 7.91667 9.10417 7.91667ZM1.1875 8.70833C0.968887 8.70833 0.791667 8.88555 0.791667 9.10417V13.0625C0.791667 13.2811 0.968887 13.4583 1.1875 13.4583H5.14583C5.36445 13.4583 5.54167 13.2811 5.54167 13.0625V9.10417C5.54167 8.88555 5.36445 8.70833 5.14583 8.70833H1.1875ZM1.1875 7.91667H5.14583C5.80167 7.91667 6.33333 8.44833 6.33333 9.10417V13.0625C6.33333 13.7183 5.80167 14.25 5.14583 14.25H1.1875C0.531662 14.25 0 13.7183 0 13.0625V9.10417C0 8.44833 0.531662 7.91667 1.1875 7.91667Z" fill="white"/>
</svg>
