<svg width="31" height="23" viewBox="0 0 31 23" fill="none" xmlns="http://www.w3.org/2000/svg">
<path d="M25.6392 0.403175C25.1017 -0.134392 24.2479 -0.134392 23.7103 0.403175C23.1727 0.940742 23.1727 1.79452 23.7103 2.33209C28.5168 7.13857 28.5168 14.9491 23.7103 19.7556C23.1727 20.2931 23.1727 21.1469 23.7103 21.6845C23.9633 21.9375 24.3111 22.0956 24.659 22.0956C25.0068 22.0956 25.3546 21.9691 25.6076 21.6845C31.4892 15.8029 31.4892 6.25317 25.6392 0.403175Z" fill="#FFA724"/>
<path d="M21.1172 4.89243C20.5797 4.35487 19.7259 4.35487 19.1883 4.89243C18.6508 5.43 18.6508 6.28378 19.1883 6.82135C21.4967 9.12972 21.5283 12.9243 19.1883 15.2327C18.6508 15.7702 18.6508 16.624 19.1883 17.1616C19.4413 17.4146 19.7891 17.5727 20.137 17.5727C20.4848 17.5727 20.8327 17.4462 21.0856 17.1616C24.5324 13.7781 24.5008 8.27594 21.1172 4.89243Z" fill="#FFA724"/>
<path d="M6.31641 2.33209C6.85397 1.79452 6.85397 0.940742 6.31641 0.403175C5.77884 -0.134392 4.92506 -0.134392 4.38749 0.403175C-1.4625 6.25316 -1.4625 15.8029 4.38749 21.6529C4.64046 21.9058 4.9883 22.0639 5.33614 22.0639C5.68398 22.0639 6.03181 21.9375 6.28479 21.6529C6.82235 21.1153 6.82235 20.2615 6.28479 19.7239C1.50993 14.9491 1.50993 7.13857 6.31641 2.33209Z" fill="#FFA724"/>
<path d="M10.8044 6.82135C11.342 6.28378 11.342 5.43 10.8044 4.89243C10.2669 4.35487 9.41309 4.35487 8.87552 4.89243C5.49201 8.27594 5.49201 13.7781 8.87552 17.1616C9.12849 17.4146 9.47633 17.5727 9.82417 17.5727C10.172 17.5727 10.5198 17.4462 10.7728 17.1616C11.3104 16.624 11.3104 15.7702 10.7728 15.2327C8.49606 12.9243 8.49606 9.12972 10.8044 6.82135Z" fill="#FFA724"/>
<path d="M15.0125 13.3365C16.2874 13.3365 17.3208 12.303 17.3208 11.0281C17.3208 9.75322 16.2874 8.71973 15.0125 8.71973C13.7376 8.71973 12.7041 9.75322 12.7041 11.0281C12.7041 12.303 13.7376 13.3365 15.0125 13.3365Z" fill="#FFA724"/>
</svg>
