<svg width="14" height="14" viewBox="0 0 14 14" fill="none" xmlns="http://www.w3.org/2000/svg">
<path d="M1.14286 0.571429C0.827266 0.571429 0.571429 0.827266 0.571429 1.14286V2.57143C0.571429 2.88702 0.827266 3.14286 1.14286 3.14286H2.57143C2.88702 3.14286 3.14286 2.88702 3.14286 2.57143V1.14286C3.14286 0.827266 2.88702 0.571429 2.57143 0.571429H1.14286ZM1.14286 0H2.57143C3.20261 0 3.71429 0.511675 3.71429 1.14286V2.57143C3.71429 3.20261 3.20261 3.71429 2.57143 3.71429H1.14286C0.511675 3.71429 0 3.20261 0 2.57143V1.14286C0 0.511675 0.511675 0 1.14286 0Z" fill="white"/>
<path d="M6.28544 0.571429C5.96984 0.571429 5.71401 0.827266 5.71401 1.14286V2.57143C5.71401 2.88702 5.96984 3.14286 6.28544 3.14286H12.8569C13.1725 3.14286 13.4283 2.88702 13.4283 2.57143V1.14286C13.4283 0.827266 13.1725 0.571429 12.8569 0.571429H6.28544ZM6.28544 0H12.8569C13.488 0 13.9997 0.511675 13.9997 1.14286V2.57143C13.9997 3.20261 13.488 3.71429 12.8569 3.71429H6.28544C5.65425 3.71429 5.14258 3.20261 5.14258 2.57143V1.14286C5.14258 0.511675 5.65425 0 6.28544 0Z" fill="white"/>
<path d="M1.14286 5.71449C0.827266 5.71449 0.571429 5.97033 0.571429 6.28592V7.71449C0.571429 8.03009 0.827266 8.28592 1.14286 8.28592H2.57143C2.88702 8.28592 3.14286 8.03009 3.14286 7.71449V6.28592C3.14286 5.97033 2.88702 5.71449 2.57143 5.71449H1.14286ZM1.14286 5.14307H2.57143C3.20261 5.14307 3.71429 5.65474 3.71429 6.28592V7.71449C3.71429 8.34568 3.20261 8.85735 2.57143 8.85735H1.14286C0.511675 8.85735 0 8.34568 0 7.71449V6.28592C0 5.65474 0.511675 5.14307 1.14286 5.14307Z" fill="white"/>
<path d="M6.28544 5.71449C5.96984 5.71449 5.71401 5.97033 5.71401 6.28592V7.71449C5.71401 8.03009 5.96984 8.28592 6.28544 8.28592H12.8569C13.1725 8.28592 13.4283 8.03009 13.4283 7.71449V6.28592C13.4283 5.97033 13.1725 5.71449 12.8569 5.71449H6.28544ZM6.28544 5.14307H12.8569C13.488 5.14307 13.9997 5.65474 13.9997 6.28592V7.71449C13.9997 8.34568 13.488 8.85735 12.8569 8.85735H6.28544C5.65425 8.85735 5.14258 8.34568 5.14258 7.71449V6.28592C5.14258 5.65474 5.65425 5.14307 6.28544 5.14307Z" fill="white"/>
<path d="M1.14286 10.8571C0.827266 10.8571 0.571429 11.1129 0.571429 11.4285V12.8571C0.571429 13.1727 0.827266 13.4285 1.14286 13.4285H2.57143C2.88702 13.4285 3.14286 13.1727 3.14286 12.8571V11.4285C3.14286 11.1129 2.88702 10.8571 2.57143 10.8571H1.14286ZM1.14286 10.2856H2.57143C3.20261 10.2856 3.71429 10.7973 3.71429 11.4285V12.8571C3.71429 13.4883 3.20261 13.9999 2.57143 13.9999H1.14286C0.511675 13.9999 0 13.4883 0 12.8571V11.4285C0 10.7973 0.511675 10.2856 1.14286 10.2856Z" fill="white"/>
<path d="M6.28544 10.8571C5.96984 10.8571 5.71401 11.1129 5.71401 11.4285V12.8571C5.71401 13.1727 5.96984 13.4285 6.28544 13.4285H12.8569C13.1725 13.4285 13.4283 13.1727 13.4283 12.8571V11.4285C13.4283 11.1129 13.1725 10.8571 12.8569 10.8571H6.28544ZM6.28544 10.2856H12.8569C13.488 10.2856 13.9997 10.7973 13.9997 11.4285V12.8571C13.9997 13.4883 13.488 13.9999 12.8569 13.9999H6.28544C5.65425 13.9999 5.14258 13.4883 5.14258 12.8571V11.4285C5.14258 10.7973 5.65425 10.2856 6.28544 10.2856Z" fill="white"/>
</svg>
