<svg width="131" height="47" viewBox="0 0 131 47" fill="none" xmlns="http://www.w3.org/2000/svg">
<path d="M1.05167 39.9081H2.03026L1.12091 43.7069C0.985955 44.2704 1.01139 44.6948 1.19792 44.9778C1.38375 45.2612 1.72961 45.4029 2.23516 45.4029C2.73753 45.4029 3.14945 45.2612 3.47129 44.9778C3.79349 44.6948 4.02206 44.2704 4.15701 43.7069L5.06601 39.9081H6.05732L5.12571 43.8008C4.92328 44.6467 4.56258 45.2799 4.04608 45.6997C3.52923 46.1202 2.85164 46.3301 2.0133 46.3301C1.17425 46.3301 0.598759 46.1205 0.285397 45.7018C-0.028317 45.2835 -0.0830758 44.6496 0.120061 43.8008L1.05167 39.9081Z" fill="#696A6A"/>
<path d="M5.92578 46.1615L7.48234 39.6582L10.44 43.4825C10.5192 43.5903 10.599 43.7058 10.6778 43.8284C10.7566 43.951 10.8371 44.0888 10.9198 44.2429L11.9581 39.9059H12.8741L11.3186 46.4043L8.29878 42.5119C8.21788 42.4069 8.14263 42.296 8.07233 42.179C8.00132 42.062 7.93737 41.9394 7.87873 41.8115L6.8376 46.1615H5.92578Z" fill="#696A6A"/>
<path d="M12.793 46.1626L14.2902 39.907H15.2808L13.7839 46.1626H12.793Z" fill="#696A6A"/>
<path d="M15.2084 46.1626L16.7056 39.907H20.1077L19.901 40.7699H17.4899L17.1164 42.3295H19.5276L19.3142 43.2224H16.9027L16.1993 46.1626H15.2084Z" fill="#696A6A"/>
<path d="M19.702 46.1626L21.1992 39.907H22.1898L20.693 46.1626H19.702Z" fill="#696A6A"/>
<path d="M22.1174 46.1626L23.6146 39.907H27.0167L26.8101 40.7699H24.3989L24.0234 42.338H26.4345L26.2212 43.2312H23.81L23.326 45.2524H25.7372L25.5195 46.1626H22.1174Z" fill="#696A6A"/>
<path d="M27.8675 45.2435H28.7006C29.1584 45.2435 29.5096 45.2121 29.7537 45.1496C29.9978 45.087 30.2218 44.9814 30.4271 44.8333C30.7058 44.6316 30.9386 44.38 31.1258 44.0793C31.3127 43.7789 31.4544 43.4288 31.5498 43.0298C31.6448 42.6309 31.671 42.2818 31.6279 41.9818C31.5844 41.6808 31.4721 41.4295 31.2901 41.2271C31.1534 41.0794 30.9729 40.9734 30.7475 40.9105C30.5217 40.8483 30.1543 40.8168 29.6435 40.8168H29.2853H28.927L27.8675 45.2435ZM26.6569 46.1626L28.1541 39.9066H29.4905C30.3596 39.9066 30.9602 39.9512 31.293 40.0409C31.625 40.131 31.8995 40.2815 32.1154 40.4921C32.4019 40.7684 32.5842 41.1232 32.6626 41.5557C32.7407 41.9889 32.7131 42.4832 32.5803 43.0387C32.4475 43.5941 32.2387 44.0863 31.9539 44.515C31.6699 44.9439 31.3177 45.2976 30.8987 45.5768C30.5818 45.7877 30.2419 45.9379 29.8809 46.028C29.5188 46.1174 28.979 46.1626 28.2597 46.1626H27.993H26.6569Z" fill="#696A6A"/>
<path d="M37.4056 42.5221H37.66C38.2093 42.5221 38.5905 42.4603 38.8032 42.338C39.0162 42.2157 39.1593 41.9991 39.2335 41.6885C39.3133 41.3553 39.272 41.12 39.1088 40.9836C38.9455 40.8469 38.6022 40.778 38.0775 40.778H37.8232L37.4056 42.5221ZM37.1438 43.3546L36.4719 46.1626H35.5435L37.041 39.907H38.54C38.984 39.907 39.3052 39.9317 39.503 39.9815C39.7001 40.031 39.863 40.1133 39.9916 40.2275C40.1481 40.3727 40.2509 40.5684 40.3004 40.8147C40.3495 41.0614 40.3389 41.3327 40.2682 41.6285C40.1969 41.9249 40.0774 42.1984 39.9093 42.4493C39.7411 42.6998 39.544 42.8966 39.3186 43.0387C39.1356 43.1528 38.9339 43.2341 38.7127 43.2821C38.4912 43.3309 38.1588 43.3546 37.7147 43.3546H37.5193H37.1438Z" fill="#696A6A"/>
<path d="M41.4916 43.7058H43.1906L42.9069 42.2783C42.8935 42.1875 42.8807 42.0829 42.8698 41.9645C42.8595 41.8461 42.8525 41.7143 42.8479 41.5691C42.7822 41.7059 42.7161 41.8334 42.6501 41.9518C42.5843 42.0698 42.5204 42.1786 42.4575 42.2783L41.4916 43.7058ZM43.6438 46.1626L43.3375 44.5517H40.9222L39.8287 46.1626H38.7883L43.2966 39.6593L44.6888 46.1626H43.6438Z" fill="#696A6A"/>
<path d="M46.109 46.1626L46.7937 43.2994L45.553 39.907H46.5941L47.3643 42.0306C47.3819 42.085 47.4031 42.156 47.4275 42.2444C47.4522 42.3327 47.4762 42.4277 47.4989 42.5306C47.561 42.4309 47.625 42.3362 47.6889 42.2482C47.7529 42.1599 47.8175 42.079 47.8829 42.0048L49.6963 39.907H50.6876L47.7765 43.2994L47.0915 46.1626H46.109Z" fill="#696A6A"/>
<path d="M55.5643 43.0731C55.5646 43.0247 55.5788 42.8911 55.6063 42.6717C55.6275 42.4894 55.6441 42.3382 55.6561 42.2184C55.5971 42.3611 55.5275 42.5039 55.4477 42.6459C55.3675 42.7883 55.2757 42.9335 55.1707 43.0819L52.778 46.415L51.9972 43.0137C51.964 42.8738 51.9386 42.7385 51.9216 42.6078C51.9046 42.4767 51.893 42.347 51.8873 42.2184C51.8534 42.3498 51.8103 42.4869 51.7577 42.6311C51.705 42.7749 51.6422 42.9254 51.5683 43.0819L50.1771 46.1628H49.2656L52.2668 39.6418L53.121 43.5904C53.1334 43.6529 53.1514 43.7572 53.1733 43.9024C53.1952 44.0476 53.221 44.2271 53.251 44.4406C53.352 44.2611 53.4976 44.0335 53.6891 43.7572C53.7399 43.683 53.7788 43.6261 53.8049 43.5862L56.5065 39.6418L56.4199 46.1628H55.4993L55.5643 43.0731Z" fill="#696A6A"/>
<path d="M57.2113 46.1626L58.7089 39.907H62.111L61.9043 40.7699H59.4928L59.1176 42.338H61.5288L61.3154 43.2312H58.9039L58.4202 45.2524H60.8314L60.6131 46.1626H57.2113Z" fill="#696A6A"/>
<path d="M61.7507 46.1615L63.3073 39.6582L66.265 43.4825C66.3442 43.5903 66.424 43.7058 66.5028 43.8284C66.5816 43.951 66.6621 44.0888 66.7448 44.2429L67.7831 39.9059H68.6995L67.1436 46.4043L64.1238 42.5119C64.0429 42.4069 63.9676 42.296 63.8973 42.179C63.8263 42.062 63.7623 41.9394 63.7037 41.8115L62.6626 46.1615H61.7507Z" fill="#696A6A"/>
<path d="M71.8612 40.7699L70.5707 46.1626H69.5797L70.8699 40.7699H69.2501L69.4568 39.907H73.6792L73.4729 40.7699H71.8612Z" fill="#696A6A"/>
<path d="M72.8897 44.9114L73.7709 44.5358C73.7797 44.8146 73.8659 45.0277 74.0305 45.1743C74.1952 45.3213 74.4329 45.3944 74.7445 45.3944C75.0385 45.3944 75.2929 45.3103 75.5062 45.1421C75.72 44.9743 75.861 44.7492 75.9284 44.4672C76.0164 44.0994 75.797 43.7719 75.2724 43.4846C75.1989 43.4418 75.1423 43.4104 75.1035 43.3903C74.5117 43.0542 74.1365 42.75 73.9782 42.4779C73.8203 42.2058 73.7878 41.8733 73.8818 41.4804C74.0037 40.9705 74.2715 40.5575 74.6845 40.2412C75.0975 39.925 75.5773 39.7667 76.1245 39.7667C76.5743 39.7667 76.9293 39.8557 77.189 40.0338C77.449 40.2123 77.5974 40.4677 77.6341 40.8009L76.7619 41.2112C76.6862 41.0147 76.5866 40.8709 76.463 40.7794C76.339 40.6882 76.1821 40.6426 75.9938 40.6426C75.7274 40.6426 75.4985 40.7144 75.3073 40.8561C75.1173 40.9988 74.9926 41.1896 74.935 41.4292C74.8452 41.8051 75.1056 42.1553 75.7165 42.48C75.7634 42.5055 75.8002 42.526 75.8267 42.5401C76.3612 42.8245 76.7089 43.1033 76.8682 43.3754C77.0279 43.6478 77.0593 43.9874 76.9615 44.3945C76.8198 44.9874 76.5255 45.458 76.0782 45.8068C75.631 46.1555 75.0975 46.3301 74.4789 46.3301C73.9592 46.3301 73.5631 46.2078 73.2904 45.9626C73.0169 45.7177 72.8834 45.3676 72.8897 44.9114Z" fill="#696A6A"/>
<path d="M80.2113 46.1626L81.7085 39.907H82.6995L81.2023 46.1626H80.2113Z" fill="#696A6A"/>
<path d="M82.6267 46.1615L84.1833 39.6582L87.1409 43.4825C87.2201 43.5903 87.2999 43.7058 87.3787 43.8284C87.4575 43.951 87.538 44.0888 87.6207 44.2429L88.659 39.9059H89.575L88.0196 46.4043L84.9997 42.5119C84.9188 42.4069 84.8432 42.296 84.7729 42.179C84.7022 42.062 84.6379 41.9394 84.5793 41.8115L83.5385 46.1615H82.6267Z" fill="#696A6A"/>
<path d="M92.7375 40.7699L91.4466 46.1626H90.456L91.7461 40.7699H90.1263L90.333 39.907H94.5555L94.3491 40.7699H92.7375Z" fill="#696A6A"/>
<path d="M93.8163 46.1626L95.3135 39.907H98.7156L98.5093 40.7699H96.0981L95.7226 42.338H98.1338L97.92 43.2312H95.5089L95.0252 45.2524H97.4364L97.2184 46.1626H93.8163Z" fill="#696A6A"/>
<path d="M100.206 42.5754H100.385C100.909 42.5754 101.273 42.5132 101.475 42.3878C101.677 42.2624 101.817 42.0405 101.893 41.721C101.975 41.3765 101.941 41.1334 101.79 40.9928C101.64 40.8511 101.314 40.7808 100.815 40.7808H100.635L100.206 42.5754ZM99.9541 43.3658L99.2839 46.165H98.3555L99.853 39.9094H101.235C101.641 39.9094 101.949 39.9363 102.159 39.9907C102.369 40.0448 102.539 40.1342 102.667 40.2599C102.82 40.4105 102.919 40.6062 102.965 40.8454C103.01 41.0843 102.998 41.3465 102.93 41.6309C102.81 42.1323 102.598 42.5249 102.295 42.8086C101.991 43.0917 101.601 43.2623 101.127 43.3189L102.545 46.165H101.424L100.066 43.3658H99.9541Z" fill="#696A6A"/>
<path d="M103.132 46.1626L104.63 39.907H108.032L107.825 40.7699H105.414L105.04 42.3295H107.452L107.238 43.2224H104.827L104.123 46.1626H103.132Z" fill="#696A6A"/>
<path d="M109.18 43.7058H110.879L110.596 42.2783C110.582 42.1875 110.57 42.0829 110.559 41.9645C110.548 41.8461 110.541 41.7143 110.537 41.5691C110.471 41.7059 110.405 41.8334 110.339 41.9518C110.273 42.0698 110.209 42.1786 110.146 42.2783L109.18 43.7058ZM111.333 46.1626L111.026 44.5517H108.611L107.518 46.1626H106.477L110.985 39.6593L112.378 46.1626H111.333Z" fill="#696A6A"/>
<path d="M118.828 41.4263C118.607 41.1814 118.355 40.9977 118.071 40.875C117.789 40.7531 117.475 40.6913 117.131 40.6913C116.465 40.6913 115.87 40.9107 115.347 41.3492C114.824 41.7881 114.479 42.3563 114.312 43.0545C114.151 43.7297 114.221 44.2862 114.523 44.7247C114.824 45.1636 115.285 45.3834 115.904 45.3834C116.265 45.3834 116.624 45.3176 116.982 45.1866C117.339 45.0555 117.7 44.8576 118.063 44.5922L117.787 45.742C117.474 45.9385 117.149 46.0855 116.812 46.1819C116.475 46.2787 116.123 46.3271 115.757 46.3271C115.291 46.3271 114.878 46.2491 114.52 46.0922C114.162 45.9356 113.869 45.7053 113.643 45.4C113.417 45.101 113.273 44.7488 113.211 44.3424C113.148 43.9368 113.172 43.5043 113.281 43.0453C113.391 42.587 113.574 42.1563 113.831 41.7531C114.086 41.3499 114.403 40.9959 114.778 40.6913C115.154 40.3835 115.557 40.151 115.986 39.9924C116.415 39.8348 116.858 39.7553 117.313 39.7553C117.671 39.7553 118 39.809 118.299 39.9161C118.598 40.0224 118.875 40.1839 119.129 40.4012L118.828 41.4263Z" fill="#696A6A"/>
<path d="M118.924 46.1626L120.422 39.907H123.824L123.617 40.7699H121.206L120.831 42.338H123.242L123.028 43.2312H120.617L120.133 45.2524H122.545L122.327 46.1626H118.924Z" fill="#696A6A"/>
<path d="M100.849 34.4561H94.0366L103.511 0.232841H110.324L100.849 34.4561Z" fill="#66686C"/>
<path d="M97.3124 1.31594C96.8401 0.664734 96.1116 0.336121 95.122 0.336121H57.6615L55.8061 7.03906H62.6223V7.03518H89.8847L87.9013 14.1982H60.6382L60.6407 14.1833H53.8273L48.1724 34.6021H54.9893L58.7842 20.8972H89.43C90.387 20.8972 91.2879 20.5707 92.1351 19.9178C92.9805 19.2641 93.5369 18.4581 93.8036 17.4956L97.5982 3.78794C97.8752 2.79328 97.7794 1.96786 97.3124 1.31594Z" fill="#66686C"/>
<path d="M44.2027 32.3203C43.8264 33.6754 42.5928 34.6128 41.1863 34.6128H6.03796C5.08021 34.6128 4.36835 34.2863 3.90025 33.634C3.43251 32.981 3.33217 32.1733 3.59961 31.2111L12.1759 0.333443H18.9946L11.3344 27.912H38.6099L46.2701 0.333443H53.0874L44.2027 32.3203Z" fill="#66686C"/>
<path d="M122.089 0.29771L130.714 17.4536L112.583 34.605L122.089 0.29771Z" fill="#27803B"/>
<path d="M116.043 0.29771L124.662 17.4536L106.523 34.605L116.043 0.29771Z" fill="#E9661C"/>
</svg>
